<?xml version="1.0" encoding="utf-8"?>
<!-- Generator: Adobe Illustrator 27.9.0, SVG Export Plug-In . SVG Version: 6.00 Build 0)  -->
<svg version="1.1" id="Layer_1" xmlns="http://www.w3.org/2000/svg" xmlns:xlink="http://www.w3.org/1999/xlink" x="0px" y="0px"
	 viewBox="0 0 145 36" style="enable-background:new 0 0 145 36;" xml:space="preserve">
<style type="text/css">
	.st0{fill:url(#SVGID_1_);}
	.st1{fill:url(#SVGID_00000008833582488175289480000009998268272510739865_);}
	.st2{fill:url(#SVGID_00000004507658084869844150000006451279852290455425_);}
	.st3{fill:url(#SVGID_00000022552026308343355270000000078392484041962413_);}
	.st4{fill:url(#SVGID_00000065766263798641634710000012689635437088264639_);}
	.st5{fill:url(#SVGID_00000054945171031524809080000007774534834990492833_);}
	.st6{fill:#FCFCFC;}
</style>
<g>
	
		<linearGradient id="SVGID_1_" gradientUnits="userSpaceOnUse" x1="1.0147" y1="15.9369" x2="15.4131" y2="15.9369" gradientTransform="matrix(1 0 0 -1 0 36.1102)">
		<stop  offset="0" style="stop-color:#877EFF"/>
		<stop  offset="1" style="stop-color:#3121FF"/>
	</linearGradient>
	<path class="st0" d="M3.2,10.2C6.4,16.1,9.5,22,15.4,25.7c-1.1,0.7-2.2,1.4-3.4,2.1c-1.4,0.8-2.8,1.5-4.2,2.3
		c-0.2,0.1-0.6,0.1-0.8,0C0.5,25.2-0.6,16.3,3.2,10.2z"/>
	
		<linearGradient id="SVGID_00000034049427542763933720000017610805379826846612_" gradientUnits="userSpaceOnUse" x1="8.4376" y1="10.2679" x2="28.3755" y2="10.2679" gradientTransform="matrix(1 0 0 -1 0 36.1102)">
		<stop  offset="0" style="stop-color:#877EFF"/>
		<stop  offset="1" style="stop-color:#3121FF"/>
	</linearGradient>
	<path style="fill:url(#SVGID_00000034049427542763933720000017610805379826846612_);" d="M8.4,31c5.9-3.3,11.9-6.3,15.6-12.3
		c0.1,0.1,0.2,0.2,0.3,0.4c1.3,2.3,2.6,4.6,3.9,6.8c0.2,0.4,0.1,0.6-0.1,0.9c-3.2,4.2-7.4,6.3-12.6,6.2C13,33,10.6,32.2,8.4,31z"/>
	
		<linearGradient id="SVGID_00000047027044936840567450000002186712997410257333_" gradientUnits="userSpaceOnUse" x1="3.9966" y1="26.0686" x2="23.4318" y2="26.0686" gradientTransform="matrix(1 0 0 -1 0 36.1102)">
		<stop  offset="0" style="stop-color:#877EFF"/>
		<stop  offset="1" style="stop-color:#3121FF"/>
	</linearGradient>
	<path style="fill:url(#SVGID_00000047027044936840567450000002186712997410257333_);" d="M23.4,4.9c-5.8,3.3-11.5,6.3-15,12.2
		c-0.4-0.6-0.8-1.2-1.2-1.9c-1-1.9-2.1-3.7-3.1-5.6c-0.2-0.3-0.2-0.5,0-0.8C8,3.6,15.4,1.6,21.6,4.1C22.2,4.3,22.7,4.6,23.4,4.9z"/>
	
		<linearGradient id="SVGID_00000051361218531041555430000007468769769301773719_" gradientUnits="userSpaceOnUse" x1="16.9044" y1="20.5828" x2="30.9839" y2="20.5828" gradientTransform="matrix(1 0 0 -1 0 36.1102)">
		<stop  offset="0" style="stop-color:#877EFF"/>
		<stop  offset="1" style="stop-color:#3121FF"/>
	</linearGradient>
	<path style="fill:url(#SVGID_00000051361218531041555430000007468769769301773719_);" d="M29.1,25.3c-3.3-5.8-6.3-11.7-12.2-15.2
		c0.1-0.1,0.3-0.2,0.4-0.3c2.2-1.3,4.4-2.6,6.7-3.9c0.4-0.2,0.6-0.1,0.9,0.1c5.5,4,7.6,11.5,5,17.8C29.6,24.2,29.4,24.7,29.1,25.3z"
		/>
	<g>
		
			<linearGradient id="SVGID_00000008864586199131119410000003570223710047654284_" gradientUnits="userSpaceOnUse" x1="12.2389" y1="18.6266" x2="19.514" y2="18.6266" gradientTransform="matrix(1 0 0 -1 0 36.1102)">
			<stop  offset="0" style="stop-color:#877EFF"/>
			<stop  offset="1" style="stop-color:#3121FF"/>
		</linearGradient>
		<path style="fill:url(#SVGID_00000008864586199131119410000003570223710047654284_);" d="M15.9,21.1c-2,0-3.6-1.6-3.6-3.6
			s1.6-3.6,3.6-3.6s3.6,1.6,3.7,3.6C19.5,19.6,17.9,21.1,15.9,21.1z M15.8,20.3c1.6,0,2.8-1.2,2.8-2.7c0-1.5-1.3-2.7-2.8-2.7
			c-1.5,0-2.7,1.2-2.7,2.7C13.1,19.1,14.3,20.3,15.8,20.3z"/>
		
			<linearGradient id="SVGID_00000094607138977194707690000005080805506061049483_" gradientUnits="userSpaceOnUse" x1="13.9978" y1="18.4807" x2="17.7407" y2="18.4807" gradientTransform="matrix(1 0 0 -1 0 36.1102)">
			<stop  offset="0" style="stop-color:#877EFF"/>
			<stop  offset="1" style="stop-color:#3121FF"/>
		</linearGradient>
		<path style="fill:url(#SVGID_00000094607138977194707690000005080805506061049483_);" d="M15.9,15.8c1.1,0,1.9,0.8,1.9,1.9
			c0,1-0.9,1.8-1.9,1.8s-1.8-0.9-1.8-1.8C14,16.5,14.8,15.7,15.9,15.8z"/>
	</g>
</g>
<g>
	<path class="st6" d="M54.3,20.8c0,1.1-0.3,2.1-0.8,2.9c-0.6,0.9-1.4,1.5-2.4,2s-2.3,0.7-3.8,0.7c-1.8,0-3.2-0.3-4.4-1
		c-0.8-0.5-1.5-1.1-2-1.9c-0.5-0.8-0.8-1.6-0.8-2.3c0-0.4,0.2-0.8,0.5-1.1c0.3-0.3,0.7-0.5,1.2-0.5c0.4,0,0.7,0.1,1,0.4
		c0.3,0.2,0.5,0.6,0.7,1.1c0.2,0.6,0.5,1,0.7,1.4c0.3,0.4,0.6,0.7,1.1,0.9c0.5,0.2,1.1,0.4,1.9,0.4c1.1,0,1.9-0.3,2.6-0.8
		c0.7-0.5,1-1.1,1-1.9c0-0.6-0.2-1.1-0.5-1.4c-0.4-0.4-0.8-0.7-1.4-0.8c-0.6-0.2-1.3-0.4-2.3-0.6c-1.3-0.3-2.4-0.7-3.2-1.1
		c-0.9-0.4-1.6-1-2.1-1.6c-0.5-0.7-0.8-1.6-0.8-2.6c0-1,0.3-1.9,0.8-2.6c0.5-0.8,1.3-1.4,2.3-1.8c1-0.4,2.2-0.6,3.6-0.6
		c1.1,0,2,0.1,2.9,0.4c0.8,0.3,1.5,0.6,2,1.1c0.5,0.5,0.9,0.9,1.2,1.4c0.2,0.5,0.4,1,0.4,1.5c0,0.4-0.2,0.8-0.5,1.2
		C52.8,13.8,52.4,14,52,14c-0.4,0-0.7-0.1-0.9-0.3c-0.2-0.2-0.5-0.5-0.7-1c-0.3-0.7-0.7-1.2-1.2-1.6c-0.5-0.4-1.2-0.6-2.2-0.6
		c-0.9,0-1.7,0.2-2.3,0.6c-0.6,0.4-0.9,0.9-0.9,1.5c0,0.4,0.1,0.7,0.3,0.9c0.2,0.3,0.5,0.5,0.8,0.7c0.3,0.2,0.7,0.3,1,0.4
		c0.3,0.1,0.9,0.3,1.7,0.5c1,0.2,1.9,0.5,2.7,0.8c0.8,0.3,1.5,0.6,2.1,1c0.6,0.4,1,0.9,1.3,1.5C54.2,19.1,54.3,19.9,54.3,20.8z"/>
	<path class="st6" d="M62.5,14.8v0.4c0.6-0.8,1.2-1.3,1.9-1.7c0.7-0.4,1.5-0.5,2.4-0.5c0.9,0,1.7,0.2,2.4,0.6
		c0.7,0.4,1.2,0.9,1.6,1.6c0.2,0.4,0.4,0.8,0.4,1.3c0.1,0.5,0.1,1.1,0.1,1.8v6.2c0,0.7-0.2,1.2-0.5,1.5c-0.3,0.3-0.7,0.5-1.2,0.5
		c-0.5,0-0.9-0.2-1.2-0.5c-0.3-0.3-0.5-0.9-0.5-1.5v-5.6c0-1.1-0.2-1.9-0.5-2.5c-0.3-0.6-0.9-0.9-1.8-0.9c-0.6,0-1.1,0.2-1.6,0.5
		c-0.5,0.4-0.8,0.8-1.1,1.5c-0.2,0.5-0.2,1.4-0.2,2.8v4.2c0,0.7-0.2,1.2-0.5,1.5c-0.3,0.3-0.7,0.5-1.2,0.5c-0.5,0-0.9-0.2-1.2-0.5
		c-0.3-0.3-0.5-0.9-0.5-1.5v-9.6c0-0.6,0.1-1.1,0.4-1.4c0.3-0.3,0.7-0.5,1.1-0.5c0.3,0,0.6,0.1,0.8,0.2c0.2,0.1,0.4,0.3,0.6,0.6
		C62.4,14,62.5,14.4,62.5,14.8z"/>
	<path class="st6" d="M85.2,24.6c-0.8,0.6-1.6,1.1-2.3,1.4c-0.8,0.3-1.6,0.5-2.5,0.5c-0.9,0-1.6-0.2-2.3-0.5
		c-0.6-0.3-1.1-0.8-1.5-1.4c-0.4-0.6-0.5-1.2-0.5-1.9c0-0.9,0.3-1.7,0.9-2.3c0.6-0.6,1.4-1.1,2.4-1.3c0.2,0,0.7-0.2,1.6-0.3
		c0.8-0.2,1.6-0.3,2.2-0.5c0.6-0.1,1.2-0.3,1.9-0.5c0-0.9-0.2-1.5-0.5-1.9c-0.3-0.4-1-0.6-1.9-0.6c-0.8,0-1.5,0.1-1.9,0.4
		c-0.4,0.2-0.8,0.6-1.1,1.1c-0.3,0.5-0.5,0.8-0.6,0.9c-0.1,0.2-0.4,0.2-0.8,0.2c-0.4,0-0.7-0.1-1-0.4c-0.3-0.2-0.4-0.5-0.4-0.9
		c0-0.6,0.2-1.2,0.6-1.7c0.4-0.6,1.1-1,1.9-1.4c0.9-0.4,2-0.5,3.3-0.5c1.5,0,2.6,0.2,3.5,0.5c0.8,0.3,1.4,0.9,1.8,1.6
		c0.3,0.7,0.5,1.7,0.5,3c0,0.8,0,1.4,0,2c0,0.5,0,1.2,0,1.8c0,0.6,0.1,1.3,0.3,2c0.2,0.7,0.3,1.1,0.3,1.3c0,0.3-0.2,0.7-0.5,0.9
		c-0.3,0.3-0.7,0.4-1.1,0.4c-0.3,0-0.7-0.2-1-0.5C85.9,25.7,85.6,25.2,85.2,24.6z M85,19.8c-0.5,0.2-1.2,0.4-2.1,0.6
		c-0.9,0.2-1.6,0.3-1.9,0.4c-0.4,0.1-0.7,0.3-1,0.5c-0.3,0.3-0.5,0.7-0.5,1.1c0,0.5,0.2,0.9,0.6,1.3c0.4,0.4,0.9,0.5,1.5,0.5
		c0.7,0,1.3-0.1,1.8-0.4c0.6-0.3,1-0.7,1.2-1.1c0.3-0.5,0.5-1.3,0.5-2.5V19.8z"/>
	<path class="st6" d="M96.6,14.8v0.4c0.6-0.8,1.3-1.3,2-1.7c0.7-0.4,1.4-0.5,2.3-0.5c1,0,2,0.3,2.8,0.8c0.9,0.5,1.5,1.3,2,2.3
		c0.5,1,0.8,2.2,0.8,3.6c0,1-0.1,2-0.4,2.8c-0.3,0.9-0.7,1.6-1.2,2.2c-0.5,0.6-1.1,1-1.8,1.3c-0.7,0.3-1.4,0.5-2.2,0.5
		c-1,0-1.8-0.2-2.4-0.6c-0.6-0.4-1.3-0.9-1.8-1.7v5c0,1.5-0.5,2.2-1.6,2.2c-0.6,0-1-0.2-1.2-0.6c-0.2-0.4-0.3-0.9-0.3-1.7V14.8
		c0-0.6,0.1-1.1,0.4-1.4c0.3-0.3,0.7-0.5,1.1-0.5c0.5,0,0.9,0.2,1.2,0.5C96.5,13.7,96.6,14.2,96.6,14.8z M103.2,19.6
		c0-0.9-0.1-1.6-0.4-2.3c-0.3-0.6-0.6-1.1-1.1-1.5c-0.5-0.3-1-0.5-1.6-0.5c-0.9,0-1.7,0.4-2.3,1.1c-0.6,0.7-0.9,1.8-0.9,3.2
		c0,1.3,0.3,2.4,0.9,3.1c0.6,0.7,1.4,1.1,2.3,1.1c0.6,0,1.1-0.2,1.5-0.5c0.5-0.3,0.9-0.8,1.1-1.4C103,21.3,103.2,20.5,103.2,19.6z"
		/>
	<path class="st6" d="M113.1,11.4c-0.5,0-0.9-0.1-1.2-0.4c-0.3-0.3-0.5-0.7-0.5-1.2c0-0.5,0.2-0.9,0.5-1.2c0.3-0.3,0.7-0.5,1.2-0.5
		c0.4,0,0.8,0.1,1.1,0.4c0.3,0.3,0.5,0.7,0.5,1.2c0,0.5-0.2,0.9-0.5,1.2C114,11.2,113.6,11.4,113.1,11.4z M114.8,14.8v9.6
		c0,0.7-0.2,1.2-0.5,1.5s-0.7,0.5-1.2,0.5s-0.9-0.2-1.2-0.5c-0.3-0.3-0.5-0.9-0.5-1.5v-9.5c0-0.7,0.2-1.2,0.5-1.5
		c0.3-0.3,0.7-0.5,1.2-0.5s0.9,0.2,1.2,0.5C114.6,13.8,114.8,14.2,114.8,14.8z"/>
	<path class="st6" d="M120.2,13.2h0.8v-1c0-1,0.1-1.9,0.4-2.5c0.3-0.6,0.7-1.1,1.3-1.3c0.6-0.3,1.5-0.4,2.6-0.4
		c1.9,0,2.9,0.5,2.9,1.4c0,0.3-0.1,0.6-0.3,0.8c-0.2,0.2-0.4,0.3-0.7,0.3c-0.1,0-0.4,0-0.7-0.1c-0.3,0-0.6-0.1-0.8-0.1
		c-0.6,0-1,0.2-1.2,0.5c-0.2,0.4-0.3,0.9-0.3,1.5v0.8h0.8c1.3,0,1.9,0.4,1.9,1.1c0,0.5-0.2,0.9-0.5,1s-0.8,0.2-1.4,0.2h-0.8v8.8
		c0,0.7-0.2,1.2-0.5,1.5s-0.7,0.5-1.2,0.5c-0.5,0-0.9-0.2-1.2-0.5s-0.5-0.8-0.5-1.5v-8.8h-0.9c-0.5,0-0.9-0.1-1.1-0.3
		c-0.3-0.2-0.4-0.5-0.4-0.9C118.5,13.6,119.1,13.2,120.2,13.2z"/>
	<path class="st6" d="M134.1,26.9l0.3-0.7l-4.1-10.3c-0.3-0.6-0.4-1-0.4-1.3c0-0.3,0.1-0.5,0.2-0.8s0.3-0.4,0.6-0.6
		c0.3-0.1,0.5-0.2,0.8-0.2c0.5,0,0.8,0.2,1.1,0.5c0.2,0.3,0.5,0.7,0.6,1.3l2.8,8.2l2.7-7.6c0.2-0.6,0.4-1.1,0.6-1.5
		c0.2-0.3,0.4-0.6,0.5-0.7c0.2-0.1,0.5-0.2,0.8-0.2c0.3,0,0.5,0.1,0.7,0.2c0.2,0.1,0.4,0.3,0.5,0.5c0.1,0.2,0.2,0.5,0.2,0.7
		c0,0.2-0.1,0.4-0.2,0.7c-0.1,0.3-0.2,0.6-0.3,0.9l-4.3,11.4c-0.4,1-0.7,1.8-1.1,2.4c-0.4,0.6-0.8,1-1.4,1.3
		c-0.6,0.3-1.4,0.5-2.4,0.5c-1,0-1.7-0.1-2.2-0.3s-0.7-0.6-0.7-1.2c0-0.4,0.1-0.7,0.3-0.9c0.2-0.2,0.6-0.3,1-0.3
		c0.2,0,0.4,0,0.5,0.1c0.2,0,0.4,0.1,0.5,0.1c0.4,0,0.7-0.1,0.9-0.2c0.2-0.1,0.4-0.3,0.6-0.6C133.7,27.8,133.9,27.4,134.1,26.9z"/>
</g>
</svg>
